<svg width="27" height="23" viewBox="0 0 27 23" fill="none" xmlns="http://www.w3.org/2000/svg">
<path opacity="0.993" fill-rule="evenodd" clip-rule="evenodd" d="M26.9736 5.09277C26.9736 9.3467 26.9736 13.6006 26.9736 17.8545C26.4956 20.3631 25.019 21.954 22.5439 22.627C22.2819 22.6737 22.0182 22.7088 21.7529 22.7324C16.2334 22.7676 10.7139 22.7676 5.19434 22.7324C2.9382 22.4795 1.3298 21.3281 0.369141 19.2783C0.194638 18.8081 0.0628019 18.3335 -0.0263672 17.8545C-0.0263672 13.6006 -0.0263672 9.3467 -0.0263672 5.09277C0.45315 2.58278 1.92971 0.99196 4.40332 0.320314C4.66542 0.273612 4.92909 0.238454 5.19434 0.214845C10.7139 0.179687 16.2334 0.179687 21.7529 0.214845C24.0079 0.466214 25.6162 1.61758 26.5781 3.66895C26.7526 4.13918 26.8845 4.61379 26.9736 5.09277ZM9.51855 6.41113C9.78639 6.45063 10.0325 6.54735 10.2568 6.70117C11.321 7.77416 12.3933 8.83765 13.4736 9.8916C14.5906 8.78339 15.7156 7.68477 16.8486 6.5957C17.5696 6.28309 18.1057 6.48528 18.457 7.20215C18.5366 7.58679 18.4663 7.93832 18.2461 8.25684C17.1731 9.32102 16.1096 10.3933 15.0557 11.4736C16.1639 12.5906 17.2625 13.7156 18.3516 14.8486C18.6655 15.7676 18.3491 16.3302 17.4023 16.5361C17.1444 16.4912 16.9071 16.3945 16.6904 16.2461C15.6263 15.1731 14.5539 14.1096 13.4736 13.0557C12.3567 14.1639 11.2317 15.2625 10.0986 16.3516C9.3777 16.6642 8.84155 16.462 8.49023 15.7451C8.41066 15.3605 8.48095 15.0089 8.70117 14.6904C9.77416 13.6263 10.8377 12.554 11.8916 11.4736C10.8377 10.3933 9.77416 9.32102 8.70117 8.25684C8.33477 7.66932 8.39631 7.13317 8.88574 6.64844C9.08619 6.52103 9.29712 6.44193 9.51855 6.41113Z" fill="#FFAE00"/>
</svg>
