<svg width="22" height="22" viewBox="0 0 22 22" fill="none" xmlns="http://www.w3.org/2000/svg">
<g clip-path="url(#clip0_372_1835)">
<path opacity="0.962" fill-rule="evenodd" clip-rule="evenodd" d="M5.17775 -0.0214844C5.37828 -0.0214844 5.57877 -0.0214844 5.77931 -0.0214844C6.10144 0.12182 6.30916 0.36531 6.40235 0.708984C6.43101 1.74023 6.43101 2.77148 6.40235 3.80273C6.23319 4.40095 5.83929 4.65158 5.22071 4.55469C4.84749 4.43923 4.62547 4.18856 4.5547 3.80273C4.52604 2.77148 4.52604 1.74023 4.5547 0.708984C4.6479 0.36531 4.85561 0.12182 5.17775 -0.0214844Z" fill="#FFAE00"/>
<path opacity="0.962" fill-rule="evenodd" clip-rule="evenodd" d="M16.1777 -0.0214844C16.3783 -0.0214844 16.5788 -0.0214844 16.7793 -0.0214844C17.1014 0.12182 17.3092 0.36531 17.4024 0.708984C17.431 1.74023 17.431 2.77148 17.4024 3.80273C17.2332 4.40095 16.8393 4.65158 16.2207 4.55469C15.8475 4.43923 15.6255 4.18856 15.5547 3.80273C15.526 2.77148 15.526 1.74023 15.5547 0.708984C15.6479 0.36531 15.8556 0.12182 16.1777 -0.0214844Z" fill="#FFAE00"/>
<path opacity="0.993" fill-rule="evenodd" clip-rule="evenodd" d="M21.9785 3.7168C21.9785 9.33139 21.9785 14.9459 21.9785 20.5605C21.7494 21.2767 21.2767 21.7494 20.5605 21.9785C14.1725 21.9785 7.78452 21.9785 1.39648 21.9785C0.680337 21.7494 0.207682 21.2767 -0.0214844 20.5605C-0.0214844 14.9316 -0.0214844 9.30273 -0.0214844 3.67383C0.208915 2.92076 0.710218 2.45527 1.48242 2.27734C2.21275 2.25586 2.94322 2.2487 3.67383 2.25586C3.66667 2.81464 3.67383 3.37323 3.69531 3.93164C3.91796 4.87785 4.51236 5.37917 5.47852 5.43554C6.44428 5.37956 7.03871 4.87828 7.26172 3.93164C7.2832 3.37323 7.29038 2.81464 7.2832 2.25586C9.74673 2.25586 12.2103 2.25586 14.6738 2.25586C14.6667 2.81464 14.6738 3.37323 14.6953 3.93164C14.918 4.87785 15.5124 5.37917 16.4785 5.43554C17.4443 5.37956 18.0387 4.87828 18.2617 3.93164C18.2832 3.37323 18.2904 2.81464 18.2832 2.25586C19.0138 2.2487 19.7443 2.25586 20.4746 2.27734C21.2658 2.45984 21.767 2.93966 21.9785 3.7168ZM2.25586 6.85351C8.07099 6.84634 13.8861 6.85351 19.7012 6.875C20.244 6.94521 20.5376 7.25312 20.582 7.79883C20.6107 11.752 20.6107 15.7051 20.582 19.6582C20.5376 20.2039 20.244 20.5118 19.7012 20.582C13.8861 20.6107 8.07095 20.6107 2.25586 20.582C1.71301 20.5118 1.41939 20.2039 1.375 19.6582C1.34635 15.7051 1.34635 11.752 1.375 7.79883C1.42721 7.25265 1.72083 6.93752 2.25586 6.85351Z" fill="#FFAE00"/>
<path opacity="0.98" fill-rule="evenodd" clip-rule="evenodd" d="M12.1387 8.22852C12.8979 8.22135 13.657 8.22852 14.416 8.25001C14.5315 8.33057 14.6103 8.43799 14.6524 8.57227C14.681 9.25977 14.681 9.94727 14.6524 10.6348C14.6103 10.769 14.5315 10.8765 14.416 10.957C13.6569 10.9857 12.8978 10.9857 12.1387 10.957C12.0149 10.9033 11.9361 10.8102 11.9024 10.6777C11.8737 9.96158 11.8737 9.24546 11.9024 8.5293C11.9439 8.3952 12.0227 8.29495 12.1387 8.22852Z" fill="#FFAE00"/>
<path opacity="0.992" fill-rule="evenodd" clip-rule="evenodd" d="M16.7362 8.22852C17.4812 8.22135 18.226 8.22852 18.9706 8.25001C19.0474 8.28374 19.1118 8.33384 19.164 8.4004C19.2344 9.16992 19.2488 9.94336 19.2069 10.7207C19.1732 10.7975 19.1231 10.8619 19.0566 10.9141C18.287 10.9845 17.5136 10.9988 16.7362 10.957C16.6595 10.9233 16.595 10.8732 16.5429 10.8066C16.4725 10.0371 16.4581 9.26368 16.4999 8.48633C16.5583 8.37792 16.6371 8.29199 16.7362 8.22852Z" fill="#FFAE00"/>
<path opacity="0.992" fill-rule="evenodd" clip-rule="evenodd" d="M2.98623 12.3535C3.73116 12.3463 4.47596 12.3535 5.22061 12.375C5.29735 12.4087 5.3618 12.4588 5.41397 12.5254C5.48439 13.2949 5.49874 14.0684 5.45694 14.8457C5.42321 14.9225 5.3731 14.9869 5.30655 15.0391C4.53702 15.1095 3.76357 15.1238 2.98623 15.082C2.90949 15.0483 2.84504 14.9982 2.79287 14.9316C2.72244 14.1621 2.70811 13.3887 2.74991 12.6113C2.80833 12.5029 2.8871 12.417 2.98623 12.3535Z" fill="#FFAE00"/>
<path opacity="0.98" fill-rule="evenodd" clip-rule="evenodd" d="M7.54094 12.3535C8.3002 12.3463 9.05929 12.3535 9.81829 12.375C9.94208 12.4288 10.0208 12.5218 10.0546 12.6543C10.0833 13.3705 10.0833 14.0866 10.0546 14.8027C10.0206 14.8924 9.97044 14.9712 9.90423 15.0391C9.12035 15.1095 8.3326 15.1238 7.54094 15.082C7.47649 15.0176 7.41204 14.9531 7.34758 14.8887C7.2778 14.1611 7.26349 13.4306 7.30462 12.6973C7.35205 12.5589 7.43081 12.4443 7.54094 12.3535Z" fill="#FFAE00"/>
<path opacity="0.98" fill-rule="evenodd" clip-rule="evenodd" d="M12.1387 12.3535C12.8979 12.3463 13.657 12.3535 14.416 12.375C14.5315 12.4556 14.6103 12.563 14.6524 12.6973C14.681 13.3848 14.681 14.0723 14.6524 14.7598C14.6103 14.894 14.5315 15.0015 14.416 15.082C13.6569 15.1107 12.8978 15.1107 12.1387 15.082C12.0149 15.0283 11.9361 14.9352 11.9024 14.8027C11.8737 14.0866 11.8737 13.3705 11.9024 12.6543C11.9439 12.5202 12.0227 12.42 12.1387 12.3535Z" fill="#FFAE00"/>
<path opacity="0.992" fill-rule="evenodd" clip-rule="evenodd" d="M16.7362 12.3535C17.4812 12.3463 18.226 12.3535 18.9706 12.375C19.0474 12.4087 19.1118 12.4588 19.164 12.5254C19.2344 13.2949 19.2488 14.0684 19.2069 14.8457C19.1732 14.9225 19.1231 14.9869 19.0566 15.0391C18.287 15.1095 17.5136 15.1238 16.7362 15.082C16.6595 15.0483 16.595 14.9982 16.5429 14.9316C16.4725 14.1621 16.4581 13.3887 16.4999 12.6113C16.5583 12.5029 16.6371 12.417 16.7362 12.3535Z" fill="#FFAE00"/>
<path opacity="0.992" fill-rule="evenodd" clip-rule="evenodd" d="M2.98623 16.4785C3.73116 16.4713 4.47596 16.4785 5.22061 16.5C5.29735 16.5337 5.3618 16.5838 5.41397 16.6504C5.48439 17.4199 5.49874 18.1934 5.45694 18.9707C5.42321 19.0475 5.3731 19.1119 5.30655 19.1641C4.53702 19.2345 3.76357 19.2488 2.98623 19.207C2.90949 19.1733 2.84504 19.1232 2.79287 19.0566C2.72244 18.2871 2.70811 17.5137 2.74991 16.7363C2.80833 16.6279 2.8871 16.542 2.98623 16.4785Z" fill="#FFAE00"/>
<path opacity="0.98" fill-rule="evenodd" clip-rule="evenodd" d="M7.54094 16.4785C8.3002 16.4713 9.05929 16.4785 9.81829 16.5C9.94208 16.5538 10.0208 16.6468 10.0546 16.7793C10.0833 17.4955 10.0833 18.2116 10.0546 18.9277C10.0206 19.0174 9.97044 19.0962 9.90423 19.1641C9.12035 19.2345 8.3326 19.2488 7.54094 19.207C7.47649 19.1426 7.41204 19.0781 7.34758 19.0137C7.2778 18.2861 7.26349 17.5556 7.30462 16.8223C7.35205 16.6839 7.43081 16.5693 7.54094 16.4785Z" fill="#FFAE00"/>
<path opacity="0.98" fill-rule="evenodd" clip-rule="evenodd" d="M12.1387 16.4785C12.8979 16.4713 13.657 16.4785 14.416 16.5C14.5315 16.5806 14.6103 16.688 14.6524 16.8223C14.681 17.5098 14.681 18.1973 14.6524 18.8848C14.6103 19.019 14.5315 19.1265 14.416 19.207C13.6569 19.2357 12.8978 19.2357 12.1387 19.207C12.0149 19.1533 11.9361 19.0602 11.9024 18.9277C11.8737 18.2116 11.8737 17.4955 11.9024 16.7793C11.9439 16.6452 12.0227 16.545 12.1387 16.4785Z" fill="#FFAE00"/>
</g>
<defs>
<clipPath id="clip0_372_1835">
<rect width="22" height="22" fill="white"/>
</clipPath>
</defs>
</svg>
