<svg width="126" height="126" viewBox="0 0 126 126" fill="none" xmlns="http://www.w3.org/2000/svg">
<g clip-path="url(#clip0_372_2025)">
<path opacity="0.995" fill-rule="evenodd" clip-rule="evenodd" d="M51.0645 -0.123047C58.9395 -0.123047 66.8145 -0.123047 74.6895 -0.123047C82.6422 0.182826 90.5172 1.29025 98.3145 3.19922C108.794 5.78539 116.218 11.9788 120.586 21.7793C122.714 27.2559 124.109 32.916 124.77 38.7598C125.21 42.8932 125.579 46.9946 125.877 51.0645C125.877 58.9395 125.877 66.8145 125.877 74.6895C125.571 82.642 124.464 90.517 122.555 98.3145C119.15 111.07 111.07 119.15 98.3145 122.555C90.517 124.464 82.642 125.571 74.6895 125.877C66.8145 125.877 58.9395 125.877 51.0645 125.877C43.1169 125.539 35.2419 124.432 27.4395 122.555C16.9596 119.968 9.53576 113.775 5.16797 103.975C3.03992 98.4975 1.6454 92.8374 0.984375 86.9941C0.543875 82.8607 0.174734 78.7594 -0.123047 74.6895C-0.123047 66.8145 -0.123047 58.9395 -0.123047 51.0645C0.182826 43.1117 1.29025 35.2367 3.19922 27.4395C5.78539 16.9596 11.9788 9.53576 21.7793 5.16797C26.7034 3.23963 31.7894 1.92713 37.0371 1.23047C41.7368 0.633056 46.4125 0.181885 51.0645 -0.123047ZM61.6465 36.791C64.9267 36.4396 67.0185 37.8342 67.9219 40.9746C68.086 52.0488 68.086 63.123 67.9219 74.1973C66.5002 78.2809 63.834 79.3884 59.9238 77.5195C58.7576 76.7042 58.0604 75.5968 57.832 74.1973C57.6679 63.123 57.6679 52.0488 57.832 40.9746C58.3872 38.9027 59.6588 37.5084 61.6465 36.791ZM61.6465 84.041C65.7865 83.8751 67.8783 85.8439 67.9219 89.9473C66.7532 93.5735 64.3333 94.8448 60.6621 93.7617C57.0566 91.0825 56.8105 88.1294 59.9238 84.9023C60.5206 84.6038 61.095 84.3169 61.6465 84.041Z" fill="#FFAE00"/>
</g>
<defs>
<clipPath id="clip0_372_2025">
<rect width="126" height="126" fill="white"/>
</clipPath>
</defs>
</svg>
