<svg width="52" height="51" viewBox="0 0 52 51" fill="none" xmlns="http://www.w3.org/2000/svg">
<path d="M47.7061 25.3032C48.3707 24.6342 48.3707 23.5495 47.7061 22.8805L33.6179 8.69988C32.1763 7.24869 30.9741 6.03856 29.8915 5.20707C28.7487 4.32944 27.5413 3.71387 26.0796 3.71387C24.6179 3.71387 23.4105 4.32944 22.2677 5.20708C21.185 6.03857 19.9829 7.24869 18.5412 8.69989L4.45307 22.8805C3.78843 23.5495 3.78843 24.6342 4.45307 25.3032C5.11771 25.9722 6.19531 25.9722 6.85995 25.3032L7.83495 24.3218V31.8204C7.83495 39.181 12.8684 45.5734 19.9877 47.2543C23.9946 48.2004 28.1646 48.2004 32.1714 47.2543C39.2908 45.5734 44.3242 39.181 44.3242 31.8204V24.3217L45.2992 25.3032C45.9639 25.9722 47.0415 25.9722 47.7061 25.3032Z" stroke="#FFAE00" stroke-width="6" stroke-linecap="round"/>
</svg>
