<svg width="60" height="59" viewBox="0 0 60 59" fill="none" xmlns="http://www.w3.org/2000/svg">
<path d="M58.5505 28.3995C59.4292 27.515 59.4292 26.0811 58.5505 25.1966L39.9255 6.44934C38.0196 4.53082 36.4303 2.93098 34.999 1.83173C33.4882 0.671469 31.8919 -0.142334 29.9595 -0.142334C28.0271 -0.142334 26.4309 0.67147 24.9201 1.83174C23.4887 2.931 21.8995 4.53082 19.9936 6.44936L1.36854 25.1966C0.489864 26.0811 0.489864 27.515 1.36854 28.3995C2.24722 29.2839 3.67184 29.2839 4.55052 28.3995L5.83951 27.102V37.0155C5.83951 46.7464 12.4938 55.1974 21.9059 57.4196C27.2031 58.6703 32.7159 58.6703 38.0131 57.4196C47.4252 55.1974 54.0795 46.7465 54.0795 37.0155V27.102L55.3685 28.3995C56.2472 29.2839 57.6718 29.2839 58.5505 28.3995Z" fill="#FFAE00"/>
</svg>
