<svg width="52" height="50" viewBox="0 0 52 50" fill="none" xmlns="http://www.w3.org/2000/svg">
<path opacity="0.96" fill-rule="evenodd" clip-rule="evenodd" d="M25.9585 0.457108C30.0712 0.28641 32.6611 2.18224 33.728 6.14461C34.0962 10.303 32.285 12.9606 28.2944 14.1173C24.7242 14.5752 22.1343 13.2041 20.5249 10.004C19.3434 6.43941 20.2743 3.57872 23.3178 1.42195C24.1554 0.945644 25.0357 0.624029 25.9585 0.457108Z" fill="#FFAE00"/>
<path opacity="0.961" fill-rule="evenodd" clip-rule="evenodd" d="M25.1312 15.8395C27.5735 15.8014 29.1229 16.9477 29.7794 19.2784C29.9832 20.0733 30.0458 20.8788 29.9672 21.6949C29.4334 24.0563 28.8699 26.4108 28.277 28.7586C27.9326 31.1441 27.5884 33.5296 27.244 35.9152C27.0437 38.5523 27.0906 41.1856 27.3849 43.8154C27.4357 45.7615 26.6218 47.2332 24.9434 48.2302C22.8832 49.2508 21.0209 48.9875 19.3563 47.4401C18.5441 46.2678 18.1059 44.9666 18.0416 43.5365C17.9638 41.7066 17.9951 39.8787 18.1355 38.0529C18.6666 34.4047 19.1361 30.749 19.5441 27.0856C20.023 24.5515 20.4612 22.011 20.8587 19.4643C21.2579 18.2238 22.0248 17.2789 23.1593 16.6296C23.7857 16.2565 24.443 15.9931 25.1312 15.8395Z" fill="#FFAE00"/>
</svg>
