<svg width="54" height="51" viewBox="0 0 54 51" fill="none" xmlns="http://www.w3.org/2000/svg">
<g clip-path="url(#clip0_372_2004)">
<path opacity="0.96" fill-rule="evenodd" clip-rule="evenodd" d="M27.457 1.45711C31.5698 1.28641 34.1596 3.18224 35.2266 7.14461C35.5947 11.303 33.7836 13.9606 29.793 15.1173C26.2227 15.5752 23.6329 14.2041 22.0234 11.004C20.842 7.4394 21.7729 4.57872 24.8164 2.42195C25.654 1.94564 26.5342 1.62403 27.457 1.45711ZM28.0664 4.30086C31.2196 4.54903 32.6245 6.24173 32.2812 9.37898C31.5005 11.5464 29.9601 12.5113 27.6602 12.2735C25.1633 11.5028 24.1308 9.82692 24.5625 7.24617C25.15 5.55815 26.318 4.57639 28.0664 4.30086Z" fill="#FFAE00"/>
<path opacity="0.961" fill-rule="evenodd" clip-rule="evenodd" d="M26.3397 16.3867C28.9813 16.3451 30.657 17.5977 31.3671 20.1446C31.5875 21.0131 31.6552 21.8934 31.5702 22.7852C30.9928 25.3655 30.3834 27.9384 29.7421 30.5039C29.3696 33.1106 28.9973 35.7173 28.6249 38.3242C28.4081 41.2059 28.4589 44.0835 28.7772 46.9571C28.8322 49.0837 27.9519 50.6918 26.1366 51.7813C23.9083 52.8965 21.894 52.6088 20.0936 50.918C19.2152 49.6369 18.7412 48.215 18.6718 46.6524C18.5876 44.6527 18.6214 42.6553 18.7733 40.6602C19.3477 36.6737 19.8555 32.6789 20.2968 28.6758C20.8147 25.9066 21.2887 23.1305 21.7186 20.3477C22.1504 18.9921 22.9798 17.9595 24.2069 17.25C24.8844 16.8424 25.5954 16.5545 26.3397 16.3867ZM26.4413 19.3321C27.6978 19.2836 28.4256 19.893 28.6249 21.1602C28.6509 21.4707 28.7017 21.7753 28.7772 22.0742C28.1352 24.6763 27.5089 27.283 26.8983 29.8946C26.2509 33.6818 25.7938 37.4904 25.5272 41.3203C25.6017 43.3738 25.7201 45.422 25.8827 47.4649C25.6325 48.7135 24.8708 49.4244 23.5975 49.5977C22.6349 49.4646 22.0425 48.923 21.8202 47.9727C21.4339 45.8173 21.3662 43.6506 21.6171 41.4727C22.1914 37.4187 22.6992 33.3562 23.1405 29.2852C23.6462 26.6553 24.0863 24.0147 24.4608 21.3633C24.5053 21.0712 24.6069 20.8003 24.7655 20.5508C25.268 20.0554 25.8266 19.6491 26.4413 19.3321Z" fill="#FFAE00"/>
</g>
<defs>
<clipPath id="clip0_372_2004">
<rect width="54" height="50" fill="white" transform="translate(0 0.838623)"/>
</clipPath>
</defs>
</svg>
