<svg width="221" height="95" viewBox="0 0 221 95" fill="none" xmlns="http://www.w3.org/2000/svg">
<path d="M69.9444 86.3293C69.9444 85.4117 69.7886 84.5936 69.477 83.8748C69.1655 83.1561 68.6514 82.5138 67.9348 81.948C67.2338 81.3669 66.2835 80.8317 65.084 80.3423C63.9001 79.8377 62.4202 79.3406 60.6443 78.8513C58.9463 78.3772 57.4119 77.8573 56.041 77.2915C54.6702 76.7257 53.494 76.0757 52.5126 75.3417C51.5468 74.6077 50.8068 73.7513 50.2928 72.7726C49.7787 71.7786 49.5217 70.624 49.5217 69.3089C49.5217 68.0243 49.8021 66.8544 50.3629 65.7993C50.9237 64.7441 51.7104 63.8342 52.7229 63.0696C53.7511 62.305 54.9584 61.7162 56.3448 61.3033C57.7468 60.8904 59.2813 60.684 60.9481 60.684C63.3315 60.684 65.3878 61.1274 67.117 62.0144C68.8617 62.9014 70.2092 64.1018 71.1595 65.6157C72.1253 67.1144 72.6082 68.7966 72.6082 70.6622H69.7341C69.7341 69.2095 69.3836 67.9173 68.6826 66.7856C67.9971 65.6387 67.0001 64.7441 65.6916 64.1018C64.3986 63.4442 62.8175 63.1154 60.9481 63.1154C59.0787 63.1154 57.5054 63.3984 56.228 63.9642C54.9662 64.5147 54.0081 65.2564 53.3538 66.1892C52.7151 67.1068 52.3958 68.1313 52.3958 69.263C52.3958 70.0582 52.5516 70.7922 52.8631 71.4651C53.1747 72.1227 53.681 72.742 54.382 73.3231C55.0986 73.8889 56.041 74.4242 57.2094 74.9288C58.3777 75.4182 59.8187 75.8846 61.5323 76.3281C63.3393 76.8174 64.9438 77.3603 66.3459 77.9567C67.7479 78.5531 68.9318 79.2412 69.8976 80.0212C70.8635 80.7858 71.5956 81.6804 72.0941 82.705C72.5926 83.7296 72.8419 84.9224 72.8419 86.2834C72.8419 87.6444 72.5459 88.8678 71.9539 89.9536C71.3775 91.024 70.5597 91.9339 69.5004 92.6832C68.4567 93.4326 67.2182 94.006 65.7851 94.4036C64.3675 94.8012 62.8175 95 61.135 95C59.624 95 58.1207 94.8089 56.6252 94.4266C55.1297 94.0443 53.7589 93.4555 52.5126 92.6603C51.282 91.8498 50.2928 90.8099 49.545 89.5407C48.8129 88.2714 48.4468 86.7574 48.4468 84.9988H51.2975C51.2975 86.4057 51.5857 87.5909 52.1621 88.5543C52.7385 89.5177 53.5018 90.2976 54.4521 90.894C55.4179 91.4904 56.4772 91.9263 57.63 92.2015C58.7983 92.4615 59.9667 92.5915 61.135 92.5915C62.9265 92.5915 64.4765 92.3315 65.7851 91.8116C67.1092 91.2916 68.1295 90.5652 68.8461 89.6324C69.5783 88.6843 69.9444 87.5832 69.9444 86.3293Z" fill="#090E10"/>
<path d="M102.333 76.1216V78.5302H81.6528V76.1216H102.333ZM82.3304 61.1427V94.5413H79.4563V61.1427H82.3304ZM104.646 61.1427V94.5413H101.772V61.1427H104.646Z" fill="#090E10"/>
<path d="M138.857 76.0528V79.6312C138.857 81.9709 138.545 84.0889 137.922 85.9852C137.314 87.8661 136.426 89.4795 135.258 90.8252C134.105 92.1709 132.719 93.2032 131.099 93.9219C129.479 94.6407 127.656 95 125.631 95C123.653 95 121.845 94.6407 120.21 93.9219C118.59 93.2032 117.195 92.1709 116.027 90.8252C114.859 89.4795 113.955 87.8661 113.317 85.9852C112.678 84.0889 112.358 81.9709 112.358 79.6312V76.0528C112.358 73.7131 112.67 71.6027 113.293 69.7217C113.932 67.8255 114.835 66.2045 116.004 64.8588C117.172 63.513 118.566 62.4808 120.186 61.7621C121.807 61.0433 123.606 60.684 125.584 60.684C127.609 60.684 129.432 61.0433 131.052 61.7621C132.672 62.4808 134.066 63.513 135.235 64.8588C136.403 66.2045 137.299 67.8255 137.922 69.7217C138.545 71.6027 138.857 73.7131 138.857 76.0528ZM136.006 79.6312V76.0069C136.006 74.0342 135.772 72.2603 135.305 70.6852C134.853 69.1101 134.175 67.7643 133.272 66.648C132.384 65.5316 131.294 64.6753 130.001 64.0789C128.708 63.4825 127.235 63.1843 125.584 63.1843C123.98 63.1843 122.539 63.4825 121.261 64.0789C119.984 64.6753 118.893 65.5316 117.99 66.648C117.102 67.7643 116.417 69.1101 115.934 70.6852C115.466 72.2603 115.233 74.0342 115.233 76.0069V79.6312C115.233 81.6192 115.466 83.4084 115.934 84.9988C116.417 86.5739 117.11 87.9273 118.013 89.0589C118.917 90.1753 120.007 91.0317 121.285 91.6281C122.578 92.2245 124.026 92.5227 125.631 92.5227C127.298 92.5227 128.77 92.2245 130.047 91.6281C131.325 91.0317 132.407 90.1753 133.295 89.0589C134.183 87.9273 134.853 86.5739 135.305 84.9988C135.772 83.4084 136.006 81.6192 136.006 79.6312Z" fill="#090E10"/>
<path d="M158.089 80.9387H148.392V78.5302H158.089C160.114 78.5302 161.758 78.209 163.02 77.5667C164.297 76.9092 165.224 76.0222 165.8 74.9059C166.392 73.7895 166.688 72.5355 166.688 71.1439C166.688 69.7829 166.392 68.5289 165.8 67.382C165.224 66.2351 164.297 65.3175 163.02 64.6294C161.758 63.9259 160.114 63.5742 158.089 63.5742H149.397V94.5413H146.523V61.1427H158.089C160.582 61.1427 162.677 61.5633 164.375 62.4044C166.088 63.2454 167.381 64.4153 168.254 65.9139C169.126 67.4126 169.562 69.1406 169.562 71.0981C169.562 73.1472 169.126 74.9135 168.254 76.3969C167.381 77.8649 166.096 78.9889 164.398 79.7688C162.7 80.5487 160.597 80.9387 158.089 80.9387Z" fill="#090E10"/>
<path d="M4.32105 0.63081H12.3323L24.1285 34.3476L35.9246 0.63081H43.9359L27.3456 46.5538H20.9114L4.32105 0.63081ZM0 0.63081H7.97975L9.43061 33.496V46.5538H0V0.63081ZM40.2772 0.63081H48.2885V46.5538H38.8264V33.496L40.2772 0.63081Z" fill="#090E10"/>
<path d="M94.508 22.5199V24.6962C94.508 28.1867 94.0349 31.3197 93.0887 34.0953C92.1424 36.8709 90.8072 39.2364 89.083 41.1919C87.3588 43.1264 85.2982 44.6088 82.9011 45.6391C80.525 46.6694 77.8861 47.1846 74.9844 47.1846C72.1037 47.1846 69.4648 46.6694 67.0677 45.6391C64.6917 44.6088 62.631 43.1264 60.8858 41.1919C59.1406 39.2364 57.7843 36.8709 56.8171 34.0953C55.8709 31.3197 55.3978 28.1867 55.3978 24.6962V22.5199C55.3978 19.0084 55.8709 15.8754 56.8171 13.1209C57.7633 10.3453 59.0985 7.97975 60.8227 6.02424C62.568 4.06873 64.6286 2.57581 67.0047 1.54548C69.4017 0.515162 72.0406 0 74.9213 0C77.8231 0 80.4619 0.515162 82.838 1.54548C85.2351 2.57581 87.2957 4.06873 89.0199 6.02424C90.7652 7.97975 92.1109 10.3453 93.0571 13.1209C94.0244 15.8754 94.508 19.0084 94.508 22.5199ZM84.9512 24.6962V22.4568C84.9512 20.0177 84.7304 17.873 84.2889 16.0226C83.8473 14.1722 83.1955 12.6162 82.3334 11.3546C81.4712 10.093 80.4199 9.14675 79.1793 8.51594C77.9387 7.8641 76.5194 7.53818 74.9213 7.53818C73.3233 7.53818 71.904 7.8641 70.6634 8.51594C69.4438 9.14675 68.403 10.093 67.5408 11.3546C66.6998 12.6162 66.0584 14.1722 65.6169 16.0226C65.1753 17.873 64.9545 20.0177 64.9545 22.4568V24.6962C64.9545 27.1143 65.1753 29.2591 65.6169 31.1305C66.0584 32.9809 66.7103 34.5474 67.5724 35.83C68.4345 37.0916 69.4858 38.0484 70.7264 38.7002C71.967 39.352 73.3864 39.678 74.9844 39.678C76.5825 39.678 78.0018 39.352 79.2424 38.7002C80.483 38.0484 81.5238 37.0916 82.3649 35.83C83.206 34.5474 83.8473 32.9809 84.2889 31.1305C84.7304 29.2591 84.9512 27.1143 84.9512 24.6962Z" fill="#090E10"/>
<path d="M138.898 0.63081V46.5538H129.436L110.985 15.7703V46.5538H101.523V0.63081H110.985L129.467 31.4459V0.63081H138.898Z" fill="#090E10"/>
<path d="M178.147 39.1733V46.5538H153.703V39.1733H178.147ZM156.794 0.63081V46.5538H147.332V0.63081H156.794ZM174.962 19.3343V26.5256H153.703V19.3343H174.962ZM178.116 0.63081V8.04283H153.703V0.63081H178.116Z" fill="#090E10"/>
<path d="M190.177 0.63081L199.765 21.5737L209.353 0.63081H219.667L204.559 29.8373V46.5538H194.971V29.8373L179.831 0.63081H190.177Z" fill="#090E10"/>
<line y1="80.37" x2="38.3533" y2="80.37" stroke="#090E10"/>
<line x1="181.674" y1="80.37" x2="220.027" y2="80.37" stroke="#090E10"/>
</svg>
