<svg width="36" height="39" viewBox="0 0 36 39" fill="none" xmlns="http://www.w3.org/2000/svg">
<path opacity="0.959" fill-rule="evenodd" clip-rule="evenodd" d="M12.4377 0.953655C13.1931 0.896787 13.9295 0.985654 14.6467 1.22026C17.3759 2.77524 20.0928 4.34946 22.7971 5.94291C24.269 7.31027 24.6118 8.9226 23.8254 10.7798C23.5647 11.2618 23.2219 11.6807 22.7971 12.0367C20.0797 13.6494 17.3376 15.2236 14.5705 16.7593C12.4741 17.3979 10.8364 16.8013 9.65745 14.9693C7.53507 18.0203 7.12885 21.2957 8.4387 24.7955C10.312 28.8125 13.4731 30.9453 17.9221 31.1939C22.8997 30.874 26.1877 28.3603 27.7864 23.6529C28.0514 22.5002 28.2037 21.3323 28.2434 20.149C28.9942 17.8241 30.5812 16.872 33.0041 17.2925C34.558 17.8212 35.4593 18.9003 35.7082 20.5298C35.6832 26.788 33.1822 31.7772 28.2053 35.4976C23.0573 38.9246 17.5475 39.6356 11.676 37.6304C6.03494 35.3405 2.36599 31.2653 0.66917 25.4048C-0.715429 19.315 0.579493 13.8814 4.55394 9.10405C5.92671 7.62855 7.47551 6.3844 9.20042 5.37162C9.1701 3.05715 10.2492 1.5845 12.4377 0.953655ZM13.0471 3.08647C13.4219 3.13097 13.7774 3.24522 14.1135 3.42924C16.5131 4.84496 18.9253 6.24145 21.3498 7.61869C22.0531 8.21794 22.2181 8.94157 21.845 9.78959C21.6799 10.0562 21.4641 10.272 21.1975 10.4371C18.7729 11.8143 16.3608 13.2108 13.9612 14.6265C12.5844 15.1062 11.7465 14.6366 11.4475 13.2173C11.4377 10.3279 11.4505 7.43338 11.4856 4.53373C11.6816 3.68995 12.202 3.20753 13.0471 3.08647ZM9.16233 7.96147C9.25085 9.31954 9.26357 10.6906 9.20042 12.0747C5.93966 15.5115 4.84787 19.5486 5.92503 24.1861C7.25004 28.6341 10.1318 31.5413 14.5705 32.9078C19.8809 34.1083 24.2863 32.6483 27.7864 28.5279C29.5161 26.2078 30.3793 23.5926 30.3762 20.6822C30.6845 19.6078 31.3827 19.1888 32.4709 19.4253C33.3038 19.7992 33.6592 20.4466 33.5373 21.3677C33.2347 26.6083 30.9749 30.7596 26.758 33.8218C22.361 36.6852 17.6637 37.2946 12.6662 35.6499C6.86385 33.325 3.4488 29.072 2.42112 22.8912C1.88445 16.6286 4.13152 11.652 9.16233 7.96147Z" fill="#FFAE00"/>
</svg>
