<svg width="38" height="41" viewBox="0 0 38 41" fill="none" xmlns="http://www.w3.org/2000/svg">
<path opacity="0.959" d="M32.1086 25.5582C32.3906 24.3019 32.566 23.0303 32.6346 21.745C32.8411 21.238 33.0279 21.1214 33.0508 21.1073L33.0514 21.107C33.0723 21.0941 33.261 20.9778 33.8279 21.0426C34.0457 21.1439 34.146 21.2427 34.1985 21.3071C34.2571 21.379 34.351 21.5251 34.418 21.8252C34.3314 27.4296 32.1669 31.7599 27.859 35.0844C23.3351 38.1429 18.646 38.7619 13.4981 36.9851C8.56936 34.9121 5.41126 31.3404 3.88884 26.0331C2.68008 20.4902 3.80692 15.6888 7.29502 11.3613C8.5149 10.03 9.88073 8.91254 11.3973 8.00062L12.8731 7.1132L12.8511 5.39125C12.8412 4.61908 13.0121 4.28582 13.1092 4.15006C13.1823 4.04796 13.3443 3.87278 13.7581 3.70749C13.9475 3.71302 14.1327 3.73774 14.3168 3.78191C16.9281 5.30744 19.5284 6.85039 22.1176 8.41076C22.3733 8.7001 22.4454 8.90675 22.4706 9.02812C22.4991 9.16546 22.5166 9.43155 22.3466 9.89728C22.2954 9.97859 22.2377 10.0536 22.1722 10.1241C19.5623 11.707 16.9303 13.2548 14.276 14.7673C13.8431 14.8656 13.6424 14.8075 13.5725 14.7815C13.4864 14.7493 13.2245 14.6251 12.8668 14.0559L10.4244 10.1692L7.84505 13.9664C5.08881 18.0242 4.55189 22.5248 6.24143 27.1478L6.28106 27.2562L6.3289 27.3612C7.48768 29.9059 9.11759 32.0041 11.2808 33.4987C13.4462 34.995 15.9766 35.7693 18.7508 35.9281L18.9351 35.9386L19.1193 35.9265C22.1902 35.7243 24.9483 34.8094 27.219 33.0316C29.4861 31.2567 31.0524 28.7903 32.029 25.8453L32.0759 25.7037L32.1086 25.5582Z" stroke="#FFAE00" stroke-width="6"/>
</svg>
